<svg xmlns="http://www.w3.org/2000/svg" width="375" viewBox="0 0 375 375" height="375" version="1.0"><g fill="#FFF"><g><g><path d="M 31.40625 -3.015625 C 26.21875 1.171875 20.46875 3.265625 14.15625 3.265625 C 6.945312 3.265625 2.507812 1.253906 0.84375 -2.765625 C 0.445312 -3.710938 0.25 -4.8125 0.25 -6.0625 C 0.25 -7.320312 0.890625 -8.679688 2.171875 -10.140625 C 4.179688 -12.421875 6.972656 -13.5625 10.546875 -13.5625 C 12.953125 -13.5625 15.367188 -13.128906 17.796875 -12.265625 C 20.222656 -11.398438 24.535156 -9.320312 30.734375 -6.03125 C 33.535156 -8.707031 36.332031 -12.28125 39.125 -16.75 C 41.914062 -21.21875 44.328125 -25.53125 46.359375 -29.6875 C 48.398438 -33.851562 50.882812 -38.390625 53.8125 -43.296875 C 56.75 -48.210938 59.671875 -52.289062 62.578125 -55.53125 C 56.316406 -59.28125 49.671875 -61.15625 42.640625 -61.15625 C 39.734375 -61.15625 36.769531 -60.847656 33.75 -60.234375 C 25.101562 -58.390625 18.515625 -54.617188 13.984375 -48.921875 C 11.191406 -45.453125 9.796875 -42.15625 9.796875 -39.03125 C 9.796875 -34.789062 11.835938 -32.023438 15.921875 -30.734375 C 17.367188 -30.347656 18.625 -30.15625 19.6875 -30.15625 C 20.75 -30.15625 21.9375 -30.320312 23.25 -30.65625 C 24.5625 -30.988281 25.859375 -31.769531 27.140625 -33 C 29.597656 -35.457031 30.910156 -37.75 31.078125 -39.875 C 31.128906 -40.375 31.445312 -40.550781 32.03125 -40.40625 C 32.625 -40.269531 32.863281 -39.84375 32.75 -39.125 C 32.195312 -35.039062 30.046875 -31.941406 26.296875 -29.828125 C 24.015625 -28.597656 21.726562 -27.984375 19.4375 -27.984375 L 15.078125 -28.734375 C 10.835938 -30.179688 8.046875 -32.890625 6.703125 -36.859375 C 6.140625 -38.367188 5.859375 -39.875 5.859375 -41.375 C 5.859375 -44.445312 7.003906 -47.492188 9.296875 -50.515625 C 14.210938 -57.097656 22.925781 -61.3125 35.4375 -63.15625 C 37.894531 -63.488281 40.320312 -63.65625 42.71875 -63.65625 C 50.476562 -63.65625 57.878906 -61.816406 64.921875 -58.140625 C 67.097656 -60.648438 69.109375 -62.5625 70.953125 -63.875 C 72.796875 -65.1875 74.273438 -65.84375 75.390625 -65.84375 C 76.003906 -65.84375 76.363281 -65.710938 76.46875 -65.453125 C 76.582031 -65.203125 76.570312 -65.007812 76.4375 -64.875 C 76.300781 -64.738281 76.117188 -64.671875 75.890625 -64.671875 C 74.941406 -64.671875 73.710938 -63.664062 72.203125 -61.65625 C 70.691406 -59.644531 69.460938 -57.773438 68.515625 -56.046875 C 74.492188 -52.078125 79.046875 -46.992188 82.171875 -40.796875 C 84.679688 -35.828125 85.9375 -30.410156 85.9375 -24.546875 C 85.9375 -17.285156 84.207031 -11.503906 80.75 -7.203125 C 77.90625 -3.679688 74.441406 -1.195312 70.359375 0.25 C 65.503906 1.976562 60.703125 2.84375 55.953125 2.84375 C 46.347656 2.84375 38.164062 0.890625 31.40625 -3.015625 Z M 33.421875 -4.515625 C 39.054688 -1.171875 45.675781 0.5 53.28125 0.5 C 62.101562 0.5 69.140625 -2.007812 74.390625 -7.03125 C 78.578125 -11.113281 80.671875 -16.753906 80.671875 -23.953125 C 80.671875 -29.085938 79.664062 -33.921875 77.65625 -38.453125 C 75.132812 -44.203125 71.421875 -49.003906 66.515625 -52.859375 C 64.890625 -50.347656 61.773438 -45.28125 57.171875 -37.65625 C 52.566406 -30.03125 48.671875 -23.84375 45.484375 -19.09375 C 42.296875 -14.351562 39.78125 -10.988281 37.9375 -9 C 36.101562 -7.019531 34.597656 -5.523438 33.421875 -4.515625 Z M 28.5625 -4.359375 C 22.03125 -7.484375 17.894531 -9.351562 16.15625 -9.96875 C 14.425781 -10.582031 12.738281 -10.890625 11.09375 -10.890625 C 9.445312 -10.890625 8.132812 -10.273438 7.15625 -9.046875 C 6.1875 -7.816406 5.703125 -6.710938 5.703125 -5.734375 C 5.703125 -4.753906 5.921875 -3.820312 6.359375 -2.9375 C 7.535156 -0.53125 9.9375 0.671875 13.5625 0.671875 C 18.925781 0.671875 23.925781 -1.003906 28.5625 -4.359375 Z M 28.5625 -4.359375" transform="translate(82.43 203.146)"/></g></g></g><g fill="#FFF"><g><g><path d="M 20.015625 -29.3125 C 24.097656 -29.3125 26.140625 -26.742188 26.140625 -21.609375 C 26.140625 -19.265625 25.523438 -16.753906 24.296875 -14.078125 C 22.734375 -10.441406 20.382812 -7.144531 17.25 -4.1875 C 17.976562 -2.789062 19.289062 -2.09375 21.1875 -2.09375 C 22.695312 -2.09375 24.125 -2.847656 25.46875 -4.359375 C 27.144531 -6.085938 28.34375 -7.609375 29.0625 -8.921875 C 29.789062 -10.234375 30.320312 -11.195312 30.65625 -11.8125 C 30.988281 -12.425781 31.421875 -13.304688 31.953125 -14.453125 C 32.484375 -15.597656 32.804688 -16.296875 32.921875 -16.546875 C 33.035156 -16.796875 33.226562 -16.921875 33.5 -16.921875 C 34.0625 -16.972656 34.34375 -16.773438 34.34375 -16.328125 C 34.34375 -16.160156 34.285156 -15.96875 34.171875 -15.75 L 33.671875 -14.578125 C 33.335938 -13.796875 33.085938 -13.234375 32.921875 -12.890625 C 32.753906 -12.554688 32.457031 -11.957031 32.03125 -11.09375 C 31.613281 -10.226562 31.25 -9.546875 30.9375 -9.046875 C 30.632812 -8.546875 30.21875 -7.875 29.6875 -7.03125 C 29.164062 -6.195312 28.691406 -5.523438 28.265625 -5.015625 C 27.847656 -4.515625 27.332031 -3.957031 26.71875 -3.34375 C 26.101562 -2.726562 25.519531 -2.253906 24.96875 -1.921875 C 23.570312 -1.085938 22.257812 -0.671875 21.03125 -0.671875 C 18.738281 -0.671875 16.953125 -1.394531 15.671875 -2.84375 C 13.097656 -0.945312 10.722656 0 8.546875 0 C 4.460938 0 2.421875 -2.566406 2.421875 -7.703125 C 2.421875 -10.046875 3.035156 -12.5625 4.265625 -15.25 C 5.941406 -19.15625 8.300781 -22.472656 11.34375 -25.203125 C 14.394531 -27.941406 17.285156 -29.3125 20.015625 -29.3125 Z M 20.9375 -26.71875 C 19.4375 -26.71875 17.648438 -25.710938 15.578125 -23.703125 C 13.515625 -21.691406 11.671875 -18.957031 10.046875 -15.5 C 8.097656 -11.476562 7.125 -8.179688 7.125 -5.609375 C 7.125 -3.046875 8.097656 -1.765625 10.046875 -1.765625 C 11.441406 -1.765625 13.007812 -2.515625 14.75 -4.015625 C 13.851562 -5.304688 13.40625 -6.675781 13.40625 -8.125 C 13.507812 -10.53125 14.484375 -11.734375 16.328125 -11.734375 C 17.054688 -11.734375 17.65625 -11.476562 18.125 -10.96875 C 18.601562 -10.46875 18.84375 -10.007812 18.84375 -9.59375 C 18.84375 -9.175781 18.789062 -8.742188 18.6875 -8.296875 C 19.632812 -9.691406 20.722656 -11.671875 21.953125 -14.234375 C 23.347656 -17.085938 24.046875 -19.878906 24.046875 -22.609375 C 24.046875 -25.347656 23.007812 -26.71875 20.9375 -26.71875 Z M 20.9375 -26.71875" transform="translate(167.356 203.146)"/></g></g></g><g fill="#FFF"><g><g><path d="M 1.84375 -4.859375 C 1.84375 -7.253906 2.875 -10.15625 4.9375 -13.5625 C 4.050781 -13.5625 3.800781 -14.007812 4.1875 -14.90625 L 5.703125 -17.84375 C 7.597656 -21.46875 9.160156 -24.539062 10.390625 -27.0625 C 10.941406 -28.226562 12.03125 -28.8125 13.65625 -28.8125 L 18.765625 -28.8125 C 16.753906 -27.363281 14.726562 -24.554688 12.6875 -20.390625 C 10.65625 -16.234375 9.078125 -12.96875 7.953125 -10.59375 C 6.835938 -8.21875 6.28125 -6.414062 6.28125 -5.1875 C 6.28125 -3.957031 6.488281 -3.09375 6.90625 -2.59375 C 7.320312 -2.09375 7.894531 -1.84375 8.625 -1.84375 C 9.6875 -1.84375 11.164062 -2.957031 13.0625 -5.1875 C 16.019531 -8.65625 20.179688 -15.945312 25.546875 -27.0625 C 26.160156 -28.226562 27.25 -28.8125 28.8125 -28.8125 L 33.34375 -28.8125 C 32.113281 -27.863281 31.148438 -26.882812 30.453125 -25.875 C 29.753906 -24.875 28.789062 -23.085938 27.5625 -20.515625 C 24.207031 -13.816406 22.335938 -9.378906 21.953125 -7.203125 C 21.773438 -6.421875 21.6875 -5.695312 21.6875 -5.03125 C 21.6875 -3.238281 22.300781 -2.285156 23.53125 -2.171875 C 26.550781 -2.171875 30.265625 -6.835938 34.671875 -16.171875 C 35.015625 -16.953125 35.351562 -17.257812 35.6875 -17.09375 C 36.019531 -16.925781 36.1875 -16.703125 36.1875 -16.421875 C 36.1875 -16.140625 35.929688 -15.492188 35.421875 -14.484375 C 34.921875 -13.484375 34.429688 -12.507812 33.953125 -11.5625 C 33.484375 -10.613281 32.757812 -9.3125 31.78125 -7.65625 C 30.8125 -6.007812 29.90625 -4.710938 29.0625 -3.765625 C 26.882812 -1.304688 24.75 -0.078125 22.65625 -0.078125 C 20.5625 -0.078125 19.125 -1 18.34375 -2.84375 C 18.007812 -3.6875 17.84375 -4.75 17.84375 -6.03125 C 17.84375 -7.3125 18.125 -8.90625 18.6875 -10.8125 C 14.601562 -3.65625 10.832031 -0.078125 7.375 -0.078125 C 4.351562 -0.078125 2.59375 -1.335938 2.09375 -3.859375 C 1.925781 -4.128906 1.84375 -4.460938 1.84375 -4.859375 Z M 1.84375 -4.859375" transform="translate(195.414 203.146)"/></g></g></g><g fill="#FFF"><g><g><path d="M 25.875 -22.78125 C 25.875 -25.96875 24.5625 -27.5625 21.9375 -27.5625 C 21.71875 -27.5625 21.492188 -27.5625 21.265625 -27.5625 C 20.265625 -27.445312 19.679688 -27.640625 19.515625 -28.140625 C 19.347656 -28.648438 19.597656 -28.988281 20.265625 -29.15625 C 20.929688 -29.320312 21.65625 -29.347656 22.4375 -29.234375 C 25.34375 -28.785156 27.328125 -27.414062 28.390625 -25.125 C 29.117188 -23.726562 29.484375 -22.363281 29.484375 -21.03125 C 29.484375 -16.226562 27.722656 -11.507812 24.203125 -6.875 C 20.679688 -2.175781 16.128906 0.171875 10.546875 0.171875 C 8.484375 0.171875 6.804688 -0.410156 5.515625 -1.578125 C 4.234375 -2.753906 3.59375 -4.320312 3.59375 -6.28125 C 3.59375 -8.625 4.929688 -12.585938 7.609375 -18.171875 C 3.035156 -9.515625 0.078125 -4.546875 -1.265625 -3.265625 C -1.816406 -2.765625 -2.09375 -2.929688 -2.09375 -3.765625 C -2.09375 -3.929688 -2.039062 -4.128906 -1.9375 -4.359375 C 0.0195312 -6.921875 3.914062 -13.898438 9.75 -25.296875 C 15.582031 -36.691406 19.675781 -44.144531 22.03125 -47.65625 C 23.925781 -50.394531 25.765625 -51.765625 27.546875 -51.765625 C 27.546875 -51.765625 27.578125 -51.765625 27.640625 -51.765625 L 28.0625 -51.765625 C 28.113281 -51.765625 28.597656 -51.679688 29.515625 -51.515625 C 30.441406 -51.347656 31.128906 -51.320312 31.578125 -51.4375 C 29.734375 -49.476562 26.828125 -45.566406 22.859375 -39.703125 C 13.035156 -25.128906 8.125 -14.238281 8.125 -7.03125 C 8.125 -4.070312 9.070312 -2.398438 10.96875 -2.015625 C 11.132812 -1.953125 11.328125 -1.921875 11.546875 -1.921875 C 13.285156 -1.921875 15.453125 -3.46875 18.046875 -6.5625 C 20.640625 -9.664062 22.773438 -13.203125 24.453125 -17.171875 C 25.398438 -19.234375 25.875 -21.101562 25.875 -22.78125 Z M 25.875 -22.78125" transform="translate(225.314 203.146)"/></g></g></g><g fill="#FFF"><g><g><path d="M 9.375 -16.171875 C 9.320312 -15.941406 9.070312 -15.171875 8.625 -13.859375 C 8.175781 -12.546875 7.796875 -11.289062 7.484375 -10.09375 C 7.179688 -8.894531 7.03125 -7.691406 7.03125 -6.484375 C 7.03125 -5.285156 7.3125 -4.171875 7.875 -3.140625 C 8.4375 -2.109375 9.328125 -1.59375 10.546875 -1.59375 C 12.554688 -1.59375 14.507812 -2.945312 16.40625 -5.65625 C 18.3125 -8.363281 20.328125 -11.8125 22.453125 -16 C 22.898438 -16.78125 23.316406 -17.085938 23.703125 -16.921875 C 23.984375 -16.691406 24.039062 -16.394531 23.875 -16.03125 C 23.707031 -15.675781 23.359375 -14.894531 22.828125 -13.6875 C 22.296875 -12.488281 21.90625 -11.648438 21.65625 -11.171875 C 21.40625 -10.703125 20.957031 -9.867188 20.3125 -8.671875 C 19.664062 -7.472656 19.101562 -6.578125 18.625 -5.984375 C 18.15625 -5.398438 17.515625 -4.644531 16.703125 -3.71875 C 15.898438 -2.800781 15.132812 -2.117188 14.40625 -1.671875 C 12.445312 -0.441406 10.601562 0.171875 8.875 0.171875 C 7.144531 0.171875 5.804688 -0.203125 4.859375 -0.953125 C 3.910156 -1.710938 3.335938 -2.523438 3.140625 -3.390625 C 2.941406 -4.253906 2.84375 -5.019531 2.84375 -5.6875 C 2.84375 -6.363281 2.875 -7.234375 2.9375 -8.296875 C 3.101562 -10.078125 3.453125 -11.804688 3.984375 -13.484375 C 4.515625 -15.160156 4.804688 -16.109375 4.859375 -16.328125 C 6.140625 -20.960938 7.96875 -26.015625 10.34375 -31.484375 C 12.71875 -36.960938 14.726562 -41.082031 16.375 -43.84375 C 18.019531 -46.613281 19.316406 -48.5 20.265625 -49.5 C 22.171875 -51.507812 24.046875 -52.515625 25.890625 -52.515625 C 27.171875 -52.515625 28.035156 -51.59375 28.484375 -49.75 C 28.535156 -49.414062 28.5625 -49 28.5625 -48.5 C 28.5625 -46.601562 27.890625 -44.203125 26.546875 -41.296875 C 21.742188 -30.628906 16.019531 -22.253906 9.375 -16.171875 Z M 10.046875 -18.84375 C 12.898438 -21.75 15.722656 -25.40625 18.515625 -29.8125 C 21.304688 -34.226562 23.359375 -37.984375 24.671875 -41.078125 C 25.984375 -44.179688 26.640625 -46.289062 26.640625 -47.40625 C 26.640625 -48.53125 26.441406 -49.09375 26.046875 -49.09375 C 25.492188 -49.09375 24.429688 -47.988281 22.859375 -45.78125 C 21.296875 -43.570312 19.1875 -39.601562 16.53125 -33.875 C 13.882812 -28.15625 11.722656 -23.144531 10.046875 -18.84375 Z M 10.046875 -18.84375" transform="translate(254.209 203.146)"/></g></g></g><g fill="#FFF"><g><g><path d="M 8.453125 -12.90625 C 7.671875 -11 7.28125 -8.875 7.28125 -6.53125 C 7.28125 -4.96875 7.628906 -3.722656 8.328125 -2.796875 C 9.023438 -1.878906 10.019531 -1.421875 11.3125 -1.421875 C 16.394531 -1.421875 21 -6.195312 25.125 -15.75 C 25.519531 -16.644531 25.992188 -17.035156 26.546875 -16.921875 C 26.773438 -16.867188 26.890625 -16.726562 26.890625 -16.5 C 26.890625 -16.28125 26.257812 -14.816406 25 -12.109375 C 23.75 -9.398438 22.476562 -7.207031 21.1875 -5.53125 C 18.34375 -1.625 14.828125 0.328125 10.640625 0.328125 C 8.398438 0.328125 6.5 -0.394531 4.9375 -1.84375 C 3.375 -3.289062 2.59375 -5.269531 2.59375 -7.78125 C 2.59375 -10.300781 3.191406 -12.96875 4.390625 -15.78125 C 5.597656 -18.601562 7.234375 -21.226562 9.296875 -23.65625 C 11.359375 -26.09375 13.734375 -27.867188 16.421875 -28.984375 C 17.703125 -29.546875 18.925781 -29.828125 20.09375 -29.828125 C 21.269531 -29.828125 22.363281 -29.488281 23.375 -28.8125 C 24.320312 -28.03125 24.796875 -27.164062 24.796875 -26.21875 C 24.796875 -22.863281 22.785156 -19.648438 18.765625 -16.578125 C 17.535156 -15.628906 15.800781 -14.78125 13.5625 -14.03125 C 11.332031 -13.28125 9.628906 -12.90625 8.453125 -12.90625 Z M 22.53125 -26.296875 C 22.53125 -27.421875 22.082031 -27.984375 21.1875 -27.984375 C 19.625 -27.984375 17.253906 -26.054688 14.078125 -22.203125 C 12.171875 -19.859375 10.492188 -17.234375 9.046875 -14.328125 C 9.992188 -14.328125 11.375 -14.660156 13.1875 -15.328125 C 15.007812 -15.992188 16.585938 -16.890625 17.921875 -18.015625 C 20.992188 -20.640625 22.53125 -23.398438 22.53125 -26.296875 Z M 22.53125 -26.296875" transform="translate(271.965 203.146)"/></g></g></g><g fill="#FFF"><g><g><path d="M 7.71875 -8.625 L 8.03125 -8.625 L 8.140625 -6.046875 L 7.71875 -6.046875 C 7.550781 -6.703125 7.234375 -7.21875 6.765625 -7.59375 C 6.296875 -7.96875 5.726562 -8.15625 5.0625 -8.15625 C 4.601562 -8.15625 4.195312 -8.066406 3.84375 -7.890625 C 3.488281 -7.710938 3.1875 -7.453125 2.9375 -7.109375 C 2.6875 -6.773438 2.492188 -6.363281 2.359375 -5.875 C 2.234375 -5.394531 2.171875 -4.847656 2.171875 -4.234375 C 2.171875 -3.035156 2.421875 -2.113281 2.921875 -1.46875 C 3.421875 -0.820312 4.144531 -0.5 5.09375 -0.5 C 6.539062 -0.5 7.46875 -1.265625 7.875 -2.796875 L 8.328125 -2.796875 L 8.328125 0 L 7.9375 0 L 7.6875 -0.890625 C 6.90625 -0.222656 5.957031 0.109375 4.84375 0.109375 C 4.207031 0.109375 3.632812 0.0078125 3.125 -0.1875 C 2.613281 -0.394531 2.175781 -0.679688 1.8125 -1.046875 C 1.445312 -1.421875 1.164062 -1.867188 0.96875 -2.390625 C 0.769531 -2.921875 0.671875 -3.515625 0.671875 -4.171875 C 0.671875 -4.847656 0.773438 -5.46875 0.984375 -6.03125 C 1.191406 -6.59375 1.484375 -7.070312 1.859375 -7.46875 C 2.242188 -7.875 2.695312 -8.1875 3.21875 -8.40625 C 3.75 -8.625 4.332031 -8.734375 4.96875 -8.734375 C 5.414062 -8.734375 5.835938 -8.671875 6.234375 -8.546875 C 6.628906 -8.421875 7.054688 -8.21875 7.515625 -7.9375 Z M 7.71875 -8.625" transform="translate(123.48 237.622)"/></g></g></g><g fill="#FFF"><g><g><path d="M 5.296875 -8.734375 C 5.953125 -8.734375 6.5625 -8.617188 7.125 -8.390625 C 7.695312 -8.160156 8.191406 -7.84375 8.609375 -7.4375 C 9.035156 -7.03125 9.363281 -6.554688 9.59375 -6.015625 C 9.832031 -5.472656 9.953125 -4.882812 9.953125 -4.25 C 9.953125 -3.644531 9.832031 -3.078125 9.59375 -2.546875 C 9.351562 -2.015625 9.023438 -1.550781 8.609375 -1.15625 C 8.191406 -0.769531 7.695312 -0.460938 7.125 -0.234375 C 6.5625 -0.00390625 5.953125 0.109375 5.296875 0.109375 C 4.648438 0.109375 4.039062 -0.00390625 3.46875 -0.234375 C 2.90625 -0.460938 2.410156 -0.769531 1.984375 -1.15625 C 1.566406 -1.550781 1.238281 -2.015625 1 -2.546875 C 0.757812 -3.078125 0.640625 -3.644531 0.640625 -4.25 C 0.640625 -4.882812 0.757812 -5.472656 1 -6.015625 C 1.238281 -6.554688 1.566406 -7.03125 1.984375 -7.4375 C 2.398438 -7.84375 2.890625 -8.160156 3.453125 -8.390625 C 4.023438 -8.617188 4.640625 -8.734375 5.296875 -8.734375 Z M 5.296875 -0.5 C 5.785156 -0.5 6.226562 -0.582031 6.625 -0.75 C 7.019531 -0.925781 7.359375 -1.175781 7.640625 -1.5 C 7.921875 -1.820312 8.132812 -2.210938 8.28125 -2.671875 C 8.425781 -3.128906 8.5 -3.644531 8.5 -4.21875 C 8.5 -4.8125 8.425781 -5.347656 8.28125 -5.828125 C 8.132812 -6.304688 7.921875 -6.71875 7.640625 -7.0625 C 7.359375 -7.40625 7.019531 -7.664062 6.625 -7.84375 C 6.226562 -8.03125 5.785156 -8.125 5.296875 -8.125 C 4.804688 -8.125 4.363281 -8.03125 3.96875 -7.84375 C 3.570312 -7.664062 3.234375 -7.40625 2.953125 -7.0625 C 2.679688 -6.71875 2.46875 -6.304688 2.3125 -5.828125 C 2.164062 -5.347656 2.09375 -4.8125 2.09375 -4.21875 C 2.09375 -3.644531 2.164062 -3.128906 2.3125 -2.671875 C 2.46875 -2.210938 2.679688 -1.820312 2.953125 -1.5 C 3.234375 -1.175781 3.570312 -0.925781 3.96875 -0.75 C 4.363281 -0.582031 4.804688 -0.5 5.296875 -0.5 Z M 5.296875 -0.5" transform="translate(134.338 237.622)"/></g></g></g><g fill="#FFF"><g><g><path d="M 7.375 -6.46875 C 7.375 -5.863281 7.191406 -5.363281 6.828125 -4.96875 C 6.472656 -4.570312 5.90625 -4.304688 5.125 -4.171875 L 7.59375 -1.203125 C 7.789062 -0.953125 8.007812 -0.769531 8.25 -0.65625 C 8.5 -0.550781 8.789062 -0.472656 9.125 -0.421875 L 9.125 0 L 6.96875 0 L 4.21875 -3.515625 C 4.125 -3.640625 4.03125 -3.738281 3.9375 -3.8125 C 3.851562 -3.894531 3.765625 -3.957031 3.671875 -4 C 3.585938 -4.039062 3.484375 -4.066406 3.359375 -4.078125 C 3.234375 -4.085938 3.082031 -4.09375 2.90625 -4.09375 L 2.90625 -1.765625 C 2.90625 -1.484375 2.921875 -1.253906 2.953125 -1.078125 C 2.992188 -0.898438 3.066406 -0.765625 3.171875 -0.671875 C 3.285156 -0.578125 3.441406 -0.507812 3.640625 -0.46875 C 3.847656 -0.4375 4.117188 -0.421875 4.453125 -0.421875 L 4.453125 0 L 0.5 0 L 0.5 -0.421875 C 0.757812 -0.429688 0.96875 -0.453125 1.125 -0.484375 C 1.289062 -0.523438 1.414062 -0.585938 1.5 -0.671875 C 1.59375 -0.765625 1.65625 -0.894531 1.6875 -1.0625 C 1.71875 -1.226562 1.734375 -1.441406 1.734375 -1.703125 L 1.734375 -6.921875 C 1.734375 -7.179688 1.71875 -7.390625 1.6875 -7.546875 C 1.664062 -7.710938 1.613281 -7.84375 1.53125 -7.9375 C 1.457031 -8.03125 1.34375 -8.09375 1.1875 -8.125 C 1.039062 -8.15625 0.847656 -8.179688 0.609375 -8.203125 L 0.609375 -8.625 L 4.140625 -8.625 C 5.171875 -8.625 5.96875 -8.429688 6.53125 -8.046875 C 7.09375 -7.671875 7.375 -7.144531 7.375 -6.46875 Z M 2.90625 -4.65625 L 3.703125 -4.65625 C 4.453125 -4.65625 5.007812 -4.789062 5.375 -5.0625 C 5.738281 -5.332031 5.921875 -5.78125 5.921875 -6.40625 C 5.921875 -7.007812 5.773438 -7.441406 5.484375 -7.703125 C 5.191406 -7.960938 4.742188 -8.09375 4.140625 -8.09375 L 3.109375 -8.09375 C 2.972656 -8.09375 2.90625 -8.03125 2.90625 -7.90625 Z M 2.90625 -4.65625" transform="translate(146.807 237.622)"/></g></g></g><g fill="#FFF"><g><g><path d="M 7.375 -6.46875 C 7.375 -6.070312 7.304688 -5.710938 7.171875 -5.390625 C 7.046875 -5.078125 6.847656 -4.8125 6.578125 -4.59375 C 6.304688 -4.382812 5.953125 -4.21875 5.515625 -4.09375 C 5.078125 -3.976562 4.546875 -3.921875 3.921875 -3.921875 L 2.90625 -3.921875 L 2.90625 -1.765625 C 2.90625 -1.484375 2.921875 -1.253906 2.953125 -1.078125 C 2.992188 -0.898438 3.066406 -0.765625 3.171875 -0.671875 C 3.285156 -0.578125 3.441406 -0.507812 3.640625 -0.46875 C 3.847656 -0.4375 4.117188 -0.421875 4.453125 -0.421875 L 4.453125 0 L 0.5 0 L 0.5 -0.421875 C 0.757812 -0.429688 0.96875 -0.453125 1.125 -0.484375 C 1.289062 -0.523438 1.414062 -0.585938 1.5 -0.671875 C 1.59375 -0.765625 1.65625 -0.894531 1.6875 -1.0625 C 1.71875 -1.226562 1.734375 -1.441406 1.734375 -1.703125 L 1.734375 -6.921875 C 1.734375 -7.179688 1.71875 -7.390625 1.6875 -7.546875 C 1.664062 -7.710938 1.613281 -7.84375 1.53125 -7.9375 C 1.457031 -8.03125 1.34375 -8.09375 1.1875 -8.125 C 1.039062 -8.15625 0.847656 -8.179688 0.609375 -8.203125 L 0.609375 -8.625 L 4.140625 -8.625 C 5.171875 -8.625 5.96875 -8.429688 6.53125 -8.046875 C 7.09375 -7.671875 7.375 -7.144531 7.375 -6.46875 Z M 2.90625 -4.484375 L 3.703125 -4.484375 C 4.453125 -4.484375 5.007812 -4.625 5.375 -4.90625 C 5.738281 -5.195312 5.921875 -5.671875 5.921875 -6.328125 C 5.921875 -6.960938 5.773438 -7.414062 5.484375 -7.6875 C 5.191406 -7.957031 4.742188 -8.09375 4.140625 -8.09375 L 3.109375 -8.09375 C 2.972656 -8.09375 2.90625 -8.03125 2.90625 -7.90625 Z M 2.90625 -4.484375" transform="translate(157.507 237.622)"/></g></g></g><g fill="#FFF"><g><g><path d="M 5.296875 -8.734375 C 5.953125 -8.734375 6.5625 -8.617188 7.125 -8.390625 C 7.695312 -8.160156 8.191406 -7.84375 8.609375 -7.4375 C 9.035156 -7.03125 9.363281 -6.554688 9.59375 -6.015625 C 9.832031 -5.472656 9.953125 -4.882812 9.953125 -4.25 C 9.953125 -3.644531 9.832031 -3.078125 9.59375 -2.546875 C 9.351562 -2.015625 9.023438 -1.550781 8.609375 -1.15625 C 8.191406 -0.769531 7.695312 -0.460938 7.125 -0.234375 C 6.5625 -0.00390625 5.953125 0.109375 5.296875 0.109375 C 4.648438 0.109375 4.039062 -0.00390625 3.46875 -0.234375 C 2.90625 -0.460938 2.410156 -0.769531 1.984375 -1.15625 C 1.566406 -1.550781 1.238281 -2.015625 1 -2.546875 C 0.757812 -3.078125 0.640625 -3.644531 0.640625 -4.25 C 0.640625 -4.882812 0.757812 -5.472656 1 -6.015625 C 1.238281 -6.554688 1.566406 -7.03125 1.984375 -7.4375 C 2.398438 -7.84375 2.890625 -8.160156 3.453125 -8.390625 C 4.023438 -8.617188 4.640625 -8.734375 5.296875 -8.734375 Z M 5.296875 -0.5 C 5.785156 -0.5 6.226562 -0.582031 6.625 -0.75 C 7.019531 -0.925781 7.359375 -1.175781 7.640625 -1.5 C 7.921875 -1.820312 8.132812 -2.210938 8.28125 -2.671875 C 8.425781 -3.128906 8.5 -3.644531 8.5 -4.21875 C 8.5 -4.8125 8.425781 -5.347656 8.28125 -5.828125 C 8.132812 -6.304688 7.921875 -6.71875 7.640625 -7.0625 C 7.359375 -7.40625 7.019531 -7.664062 6.625 -7.84375 C 6.226562 -8.03125 5.785156 -8.125 5.296875 -8.125 C 4.804688 -8.125 4.363281 -8.03125 3.96875 -7.84375 C 3.570312 -7.664062 3.234375 -7.40625 2.953125 -7.0625 C 2.679688 -6.71875 2.46875 -6.304688 2.3125 -5.828125 C 2.164062 -5.347656 2.09375 -4.8125 2.09375 -4.21875 C 2.09375 -3.644531 2.164062 -3.128906 2.3125 -2.671875 C 2.46875 -2.210938 2.679688 -1.820312 2.953125 -1.5 C 3.234375 -1.175781 3.570312 -0.925781 3.96875 -0.75 C 4.363281 -0.582031 4.804688 -0.5 5.296875 -0.5 Z M 5.296875 -0.5" transform="translate(167.077 237.622)"/></g></g></g><g fill="#FFF"><g><g><path d="M 7.375 -6.46875 C 7.375 -5.863281 7.191406 -5.363281 6.828125 -4.96875 C 6.472656 -4.570312 5.90625 -4.304688 5.125 -4.171875 L 7.59375 -1.203125 C 7.789062 -0.953125 8.007812 -0.769531 8.25 -0.65625 C 8.5 -0.550781 8.789062 -0.472656 9.125 -0.421875 L 9.125 0 L 6.96875 0 L 4.21875 -3.515625 C 4.125 -3.640625 4.03125 -3.738281 3.9375 -3.8125 C 3.851562 -3.894531 3.765625 -3.957031 3.671875 -4 C 3.585938 -4.039062 3.484375 -4.066406 3.359375 -4.078125 C 3.234375 -4.085938 3.082031 -4.09375 2.90625 -4.09375 L 2.90625 -1.765625 C 2.90625 -1.484375 2.921875 -1.253906 2.953125 -1.078125 C 2.992188 -0.898438 3.066406 -0.765625 3.171875 -0.671875 C 3.285156 -0.578125 3.441406 -0.507812 3.640625 -0.46875 C 3.847656 -0.4375 4.117188 -0.421875 4.453125 -0.421875 L 4.453125 0 L 0.5 0 L 0.5 -0.421875 C 0.757812 -0.429688 0.96875 -0.453125 1.125 -0.484375 C 1.289062 -0.523438 1.414062 -0.585938 1.5 -0.671875 C 1.59375 -0.765625 1.65625 -0.894531 1.6875 -1.0625 C 1.71875 -1.226562 1.734375 -1.441406 1.734375 -1.703125 L 1.734375 -6.921875 C 1.734375 -7.179688 1.71875 -7.390625 1.6875 -7.546875 C 1.664062 -7.710938 1.613281 -7.84375 1.53125 -7.9375 C 1.457031 -8.03125 1.34375 -8.09375 1.1875 -8.125 C 1.039062 -8.15625 0.847656 -8.179688 0.609375 -8.203125 L 0.609375 -8.625 L 4.140625 -8.625 C 5.171875 -8.625 5.96875 -8.429688 6.53125 -8.046875 C 7.09375 -7.671875 7.375 -7.144531 7.375 -6.46875 Z M 2.90625 -4.65625 L 3.703125 -4.65625 C 4.453125 -4.65625 5.007812 -4.789062 5.375 -5.0625 C 5.738281 -5.332031 5.921875 -5.78125 5.921875 -6.40625 C 5.921875 -7.007812 5.773438 -7.441406 5.484375 -7.703125 C 5.191406 -7.960938 4.742188 -8.09375 4.140625 -8.09375 L 3.109375 -8.09375 C 2.972656 -8.09375 2.90625 -8.03125 2.90625 -7.90625 Z M 2.90625 -4.65625" transform="translate(179.546 237.622)"/></g></g></g><g fill="#FFF"><g><g><path d="M 5.46875 -3.125 L 2.46875 -3.125 C 2.34375 -2.820312 2.234375 -2.550781 2.140625 -2.3125 C 2.054688 -2.070312 1.984375 -1.863281 1.921875 -1.6875 C 1.867188 -1.519531 1.832031 -1.378906 1.8125 -1.265625 C 1.789062 -1.148438 1.78125 -1.050781 1.78125 -0.96875 C 1.78125 -0.757812 1.847656 -0.613281 1.984375 -0.53125 C 2.117188 -0.457031 2.34375 -0.421875 2.65625 -0.421875 L 2.65625 0 L -0.0625 0 L -0.0625 -0.421875 C 0.101562 -0.441406 0.25 -0.472656 0.375 -0.515625 C 0.5 -0.554688 0.609375 -0.609375 0.703125 -0.671875 C 0.796875 -0.734375 0.875 -0.816406 0.9375 -0.921875 C 1.007812 -1.035156 1.082031 -1.171875 1.15625 -1.328125 L 4.0625 -8.625 L 4.546875 -8.625 L 7.09375 -2.3125 C 7.257812 -1.894531 7.40625 -1.5625 7.53125 -1.3125 C 7.664062 -1.0625 7.789062 -0.867188 7.90625 -0.734375 C 8.03125 -0.609375 8.160156 -0.523438 8.296875 -0.484375 C 8.429688 -0.453125 8.597656 -0.4375 8.796875 -0.4375 L 8.796875 0 L 5.140625 0 L 5.140625 -0.4375 C 5.535156 -0.4375 5.804688 -0.472656 5.953125 -0.546875 C 6.109375 -0.617188 6.1875 -0.742188 6.1875 -0.921875 C 6.1875 -0.992188 6.179688 -1.0625 6.171875 -1.125 C 6.160156 -1.1875 6.144531 -1.253906 6.125 -1.328125 C 6.113281 -1.398438 6.085938 -1.484375 6.046875 -1.578125 C 6.015625 -1.671875 5.972656 -1.785156 5.921875 -1.921875 Z M 2.703125 -3.6875 L 5.25 -3.6875 L 4.015625 -6.984375 Z M 2.703125 -3.6875" transform="translate(190.247 237.622)"/></g></g></g><g fill="#FFF"><g><g><path d="M 8.8125 -6.484375 L 8.34375 -6.484375 C 8.320312 -6.804688 8.269531 -7.078125 8.1875 -7.296875 C 8.101562 -7.515625 7.984375 -7.679688 7.828125 -7.796875 C 7.679688 -7.921875 7.488281 -8.007812 7.25 -8.0625 C 7.019531 -8.113281 6.75 -8.140625 6.4375 -8.140625 C 6.15625 -8.140625 5.929688 -8.132812 5.765625 -8.125 C 5.597656 -8.113281 5.46875 -8.09375 5.375 -8.0625 C 5.289062 -8.03125 5.234375 -7.992188 5.203125 -7.953125 C 5.179688 -7.910156 5.171875 -7.859375 5.171875 -7.796875 L 5.171875 -1.796875 C 5.171875 -1.554688 5.1875 -1.351562 5.21875 -1.1875 C 5.25 -1.019531 5.3125 -0.878906 5.40625 -0.765625 C 5.507812 -0.660156 5.65625 -0.578125 5.84375 -0.515625 C 6.039062 -0.460938 6.296875 -0.429688 6.609375 -0.421875 L 6.609375 0 L 2.375 0 L 2.375 -0.421875 C 2.6875 -0.429688 2.9375 -0.460938 3.125 -0.515625 C 3.320312 -0.578125 3.472656 -0.660156 3.578125 -0.765625 C 3.679688 -0.878906 3.75 -1.019531 3.78125 -1.1875 C 3.8125 -1.351562 3.828125 -1.554688 3.828125 -1.796875 L 3.828125 -7.796875 C 3.828125 -7.859375 3.8125 -7.910156 3.78125 -7.953125 C 3.757812 -7.992188 3.707031 -8.03125 3.625 -8.0625 C 3.550781 -8.09375 3.441406 -8.113281 3.296875 -8.125 C 3.160156 -8.132812 2.972656 -8.140625 2.734375 -8.140625 C 2.441406 -8.140625 2.171875 -8.128906 1.921875 -8.109375 C 1.671875 -8.085938 1.453125 -8.019531 1.265625 -7.90625 C 1.085938 -7.800781 0.941406 -7.632812 0.828125 -7.40625 C 0.710938 -7.1875 0.65625 -6.878906 0.65625 -6.484375 L 0.234375 -6.484375 L 0.234375 -8.625 L 8.6875 -8.625 Z M 8.8125 -6.484375" transform="translate(200.768 237.622)"/></g></g></g><g fill="#FFF"><g><g><path d="M 2.90625 -4.734375 C 3.3125 -4.734375 3.648438 -4.757812 3.921875 -4.8125 C 4.191406 -4.863281 4.40625 -4.941406 4.5625 -5.046875 C 4.726562 -5.148438 4.847656 -5.28125 4.921875 -5.4375 C 4.992188 -5.601562 5.03125 -5.800781 5.03125 -6.03125 L 5.421875 -6.03125 L 5.421875 -2.96875 L 5.03125 -2.96875 C 5.03125 -3.195312 5 -3.390625 4.9375 -3.546875 C 4.875 -3.710938 4.757812 -3.847656 4.59375 -3.953125 C 4.4375 -4.066406 4.222656 -4.148438 3.953125 -4.203125 C 3.679688 -4.265625 3.332031 -4.296875 2.90625 -4.296875 L 2.90625 -1.765625 C 2.90625 -1.515625 2.9375 -1.304688 3 -1.140625 C 3.0625 -0.984375 3.164062 -0.851562 3.3125 -0.75 C 3.457031 -0.65625 3.648438 -0.585938 3.890625 -0.546875 C 4.128906 -0.503906 4.421875 -0.484375 4.765625 -0.484375 C 5.160156 -0.484375 5.492188 -0.507812 5.765625 -0.5625 C 6.046875 -0.625 6.28125 -0.71875 6.46875 -0.84375 C 6.65625 -0.976562 6.804688 -1.15625 6.921875 -1.375 C 7.035156 -1.601562 7.128906 -1.878906 7.203125 -2.203125 L 7.625 -2.203125 L 7.46875 0 L 0.5 0 L 0.5 -0.421875 C 0.757812 -0.429688 0.96875 -0.453125 1.125 -0.484375 C 1.289062 -0.523438 1.414062 -0.585938 1.5 -0.671875 C 1.59375 -0.765625 1.65625 -0.894531 1.6875 -1.0625 C 1.71875 -1.226562 1.734375 -1.441406 1.734375 -1.703125 L 1.734375 -6.921875 C 1.734375 -7.179688 1.71875 -7.390625 1.6875 -7.546875 C 1.664062 -7.710938 1.613281 -7.84375 1.53125 -7.9375 C 1.457031 -8.03125 1.34375 -8.09375 1.1875 -8.125 C 1.039062 -8.15625 0.847656 -8.179688 0.609375 -8.203125 L 0.609375 -8.625 L 7.09375 -8.625 L 7.1875 -6.65625 L 6.796875 -6.65625 C 6.753906 -6.957031 6.679688 -7.203125 6.578125 -7.390625 C 6.484375 -7.578125 6.347656 -7.726562 6.171875 -7.84375 C 5.992188 -7.957031 5.769531 -8.035156 5.5 -8.078125 C 5.226562 -8.117188 4.90625 -8.140625 4.53125 -8.140625 L 3.109375 -8.140625 C 2.972656 -8.140625 2.90625 -8.078125 2.90625 -7.953125 Z M 2.90625 -4.734375" transform="translate(211.637 237.622)"/></g></g></g><g fill="#FFF"><g><g><path d="M 8.8125 -6.484375 L 8.34375 -6.484375 C 8.320312 -6.804688 8.269531 -7.078125 8.1875 -7.296875 C 8.101562 -7.515625 7.984375 -7.679688 7.828125 -7.796875 C 7.679688 -7.921875 7.488281 -8.007812 7.25 -8.0625 C 7.019531 -8.113281 6.75 -8.140625 6.4375 -8.140625 C 6.15625 -8.140625 5.929688 -8.132812 5.765625 -8.125 C 5.597656 -8.113281 5.46875 -8.09375 5.375 -8.0625 C 5.289062 -8.03125 5.234375 -7.992188 5.203125 -7.953125 C 5.179688 -7.910156 5.171875 -7.859375 5.171875 -7.796875 L 5.171875 -1.796875 C 5.171875 -1.554688 5.1875 -1.351562 5.21875 -1.1875 C 5.25 -1.019531 5.3125 -0.878906 5.40625 -0.765625 C 5.507812 -0.660156 5.65625 -0.578125 5.84375 -0.515625 C 6.039062 -0.460938 6.296875 -0.429688 6.609375 -0.421875 L 6.609375 0 L 2.375 0 L 2.375 -0.421875 C 2.6875 -0.429688 2.9375 -0.460938 3.125 -0.515625 C 3.320312 -0.578125 3.472656 -0.660156 3.578125 -0.765625 C 3.679688 -0.878906 3.75 -1.019531 3.78125 -1.1875 C 3.8125 -1.351562 3.828125 -1.554688 3.828125 -1.796875 L 3.828125 -7.796875 C 3.828125 -7.859375 3.8125 -7.910156 3.78125 -7.953125 C 3.757812 -7.992188 3.707031 -8.03125 3.625 -8.0625 C 3.550781 -8.09375 3.441406 -8.113281 3.296875 -8.125 C 3.160156 -8.132812 2.972656 -8.140625 2.734375 -8.140625 C 2.441406 -8.140625 2.171875 -8.128906 1.921875 -8.109375 C 1.671875 -8.085938 1.453125 -8.019531 1.265625 -7.90625 C 1.085938 -7.800781 0.941406 -7.632812 0.828125 -7.40625 C 0.710938 -7.1875 0.65625 -6.878906 0.65625 -6.484375 L 0.234375 -6.484375 L 0.234375 -8.625 L 8.6875 -8.625 Z M 8.8125 -6.484375" transform="translate(226.737 237.622)"/></g></g></g><g fill="#FFF"><g><g><path d="M 8.625 -1.78125 C 8.625 -1.5 8.640625 -1.269531 8.671875 -1.09375 C 8.703125 -0.914062 8.757812 -0.78125 8.84375 -0.6875 C 8.925781 -0.59375 9.046875 -0.523438 9.203125 -0.484375 C 9.367188 -0.453125 9.582031 -0.429688 9.84375 -0.421875 L 9.84375 0 L 6.21875 0 L 6.21875 -0.421875 C 6.476562 -0.429688 6.6875 -0.453125 6.84375 -0.484375 C 7.007812 -0.523438 7.132812 -0.585938 7.21875 -0.671875 C 7.3125 -0.765625 7.375 -0.894531 7.40625 -1.0625 C 7.4375 -1.226562 7.453125 -1.441406 7.453125 -1.703125 L 7.453125 -4.140625 L 2.90625 -4.140625 L 2.90625 -1.78125 C 2.90625 -1.5 2.921875 -1.269531 2.953125 -1.09375 C 2.984375 -0.914062 3.039062 -0.78125 3.125 -0.6875 C 3.21875 -0.59375 3.34375 -0.523438 3.5 -0.484375 C 3.65625 -0.453125 3.867188 -0.429688 4.140625 -0.421875 L 4.140625 0 L 0.5 0 L 0.5 -0.421875 C 0.757812 -0.429688 0.96875 -0.453125 1.125 -0.484375 C 1.289062 -0.523438 1.414062 -0.585938 1.5 -0.671875 C 1.59375 -0.765625 1.65625 -0.894531 1.6875 -1.0625 C 1.71875 -1.226562 1.734375 -1.441406 1.734375 -1.703125 L 1.734375 -6.921875 C 1.734375 -7.179688 1.71875 -7.390625 1.6875 -7.546875 C 1.664062 -7.710938 1.613281 -7.84375 1.53125 -7.9375 C 1.457031 -8.03125 1.34375 -8.09375 1.1875 -8.125 C 1.039062 -8.15625 0.847656 -8.179688 0.609375 -8.203125 L 0.609375 -8.625 L 4.015625 -8.625 L 4.015625 -8.203125 C 3.773438 -8.191406 3.582031 -8.164062 3.4375 -8.125 C 3.289062 -8.09375 3.175781 -8.023438 3.09375 -7.921875 C 3.019531 -7.828125 2.96875 -7.691406 2.9375 -7.515625 C 2.914062 -7.347656 2.90625 -7.125 2.90625 -6.84375 L 2.90625 -4.6875 L 7.453125 -4.6875 L 7.453125 -6.921875 C 7.453125 -7.179688 7.4375 -7.390625 7.40625 -7.546875 C 7.382812 -7.710938 7.332031 -7.84375 7.25 -7.9375 C 7.175781 -8.03125 7.0625 -8.09375 6.90625 -8.125 C 6.757812 -8.15625 6.566406 -8.179688 6.328125 -8.203125 L 6.328125 -8.625 L 9.734375 -8.625 L 9.734375 -8.203125 C 9.492188 -8.191406 9.300781 -8.164062 9.15625 -8.125 C 9.007812 -8.09375 8.894531 -8.023438 8.8125 -7.921875 C 8.738281 -7.828125 8.6875 -7.691406 8.65625 -7.515625 C 8.632812 -7.347656 8.625 -7.125 8.625 -6.84375 Z M 8.625 -1.78125" transform="translate(237.605 237.622)"/></g></g></g><g fill="#FFF"><g><g><path d="M 2.90625 -4.734375 C 3.3125 -4.734375 3.648438 -4.757812 3.921875 -4.8125 C 4.191406 -4.863281 4.40625 -4.941406 4.5625 -5.046875 C 4.726562 -5.148438 4.847656 -5.28125 4.921875 -5.4375 C 4.992188 -5.601562 5.03125 -5.800781 5.03125 -6.03125 L 5.421875 -6.03125 L 5.421875 -2.96875 L 5.03125 -2.96875 C 5.03125 -3.195312 5 -3.390625 4.9375 -3.546875 C 4.875 -3.710938 4.757812 -3.847656 4.59375 -3.953125 C 4.4375 -4.066406 4.222656 -4.148438 3.953125 -4.203125 C 3.679688 -4.265625 3.332031 -4.296875 2.90625 -4.296875 L 2.90625 -1.765625 C 2.90625 -1.515625 2.9375 -1.304688 3 -1.140625 C 3.0625 -0.984375 3.164062 -0.851562 3.3125 -0.75 C 3.457031 -0.65625 3.648438 -0.585938 3.890625 -0.546875 C 4.128906 -0.503906 4.421875 -0.484375 4.765625 -0.484375 C 5.160156 -0.484375 5.492188 -0.507812 5.765625 -0.5625 C 6.046875 -0.625 6.28125 -0.71875 6.46875 -0.84375 C 6.65625 -0.976562 6.804688 -1.15625 6.921875 -1.375 C 7.035156 -1.601562 7.128906 -1.878906 7.203125 -2.203125 L 7.625 -2.203125 L 7.46875 0 L 0.5 0 L 0.5 -0.421875 C 0.757812 -0.429688 0.96875 -0.453125 1.125 -0.484375 C 1.289062 -0.523438 1.414062 -0.585938 1.5 -0.671875 C 1.59375 -0.765625 1.65625 -0.894531 1.6875 -1.0625 C 1.71875 -1.226562 1.734375 -1.441406 1.734375 -1.703125 L 1.734375 -6.921875 C 1.734375 -7.179688 1.71875 -7.390625 1.6875 -7.546875 C 1.664062 -7.710938 1.613281 -7.84375 1.53125 -7.9375 C 1.457031 -8.03125 1.34375 -8.09375 1.1875 -8.125 C 1.039062 -8.15625 0.847656 -8.179688 0.609375 -8.203125 L 0.609375 -8.625 L 7.09375 -8.625 L 7.1875 -6.65625 L 6.796875 -6.65625 C 6.753906 -6.957031 6.679688 -7.203125 6.578125 -7.390625 C 6.484375 -7.578125 6.347656 -7.726562 6.171875 -7.84375 C 5.992188 -7.957031 5.769531 -8.035156 5.5 -8.078125 C 5.226562 -8.117188 4.90625 -8.140625 4.53125 -8.140625 L 3.109375 -8.140625 C 2.972656 -8.140625 2.90625 -8.078125 2.90625 -7.953125 Z M 2.90625 -4.734375" transform="translate(249.84 237.622)"/></g></g></g><g fill="#FFF"><g><g><path d="M 6.15625 -2 L 9.078125 -8.625 L 11.578125 -8.625 L 11.578125 -8.203125 C 11.335938 -8.191406 11.144531 -8.160156 11 -8.109375 C 10.851562 -8.054688 10.738281 -7.96875 10.65625 -7.84375 C 10.582031 -7.71875 10.53125 -7.546875 10.5 -7.328125 C 10.476562 -7.117188 10.46875 -6.847656 10.46875 -6.515625 L 10.46875 -2.125 C 10.46875 -1.75 10.484375 -1.453125 10.515625 -1.234375 C 10.546875 -1.015625 10.601562 -0.84375 10.6875 -0.71875 C 10.78125 -0.601562 10.90625 -0.523438 11.0625 -0.484375 C 11.21875 -0.453125 11.429688 -0.429688 11.703125 -0.421875 L 11.703125 0 L 8.0625 0 L 8.0625 -0.421875 C 8.320312 -0.429688 8.53125 -0.457031 8.6875 -0.5 C 8.851562 -0.539062 8.976562 -0.613281 9.0625 -0.71875 C 9.15625 -0.832031 9.21875 -0.992188 9.25 -1.203125 C 9.28125 -1.410156 9.296875 -1.6875 9.296875 -2.03125 L 9.296875 -7.234375 L 9.1875 -7.234375 L 5.921875 0.109375 L 5.671875 0.109375 L 2.453125 -7.234375 L 2.40625 -7.234375 L 2.40625 -2.125 C 2.40625 -1.75 2.421875 -1.453125 2.453125 -1.234375 C 2.484375 -1.015625 2.539062 -0.84375 2.625 -0.71875 C 2.707031 -0.601562 2.828125 -0.523438 2.984375 -0.484375 C 3.148438 -0.453125 3.363281 -0.429688 3.625 -0.421875 L 3.625 0 L 0.5 0 L 0.5 -0.421875 C 0.757812 -0.429688 0.96875 -0.457031 1.125 -0.5 C 1.289062 -0.539062 1.414062 -0.613281 1.5 -0.71875 C 1.59375 -0.832031 1.65625 -0.992188 1.6875 -1.203125 C 1.71875 -1.410156 1.734375 -1.6875 1.734375 -2.03125 L 1.734375 -6.59375 C 1.734375 -6.90625 1.71875 -7.160156 1.6875 -7.359375 C 1.664062 -7.566406 1.613281 -7.726562 1.53125 -7.84375 C 1.457031 -7.96875 1.34375 -8.050781 1.1875 -8.09375 C 1.039062 -8.144531 0.847656 -8.179688 0.609375 -8.203125 L 0.609375 -8.625 L 3.296875 -8.625 L 6.109375 -2 Z M 6.15625 -2" transform="translate(259.846 237.622)"/></g></g></g><g fill="#FFF"><g><g><path d="M 2.90625 -4.734375 C 3.3125 -4.734375 3.648438 -4.757812 3.921875 -4.8125 C 4.191406 -4.863281 4.40625 -4.941406 4.5625 -5.046875 C 4.726562 -5.148438 4.847656 -5.28125 4.921875 -5.4375 C 4.992188 -5.601562 5.03125 -5.800781 5.03125 -6.03125 L 5.421875 -6.03125 L 5.421875 -2.96875 L 5.03125 -2.96875 C 5.03125 -3.195312 5 -3.390625 4.9375 -3.546875 C 4.875 -3.710938 4.757812 -3.847656 4.59375 -3.953125 C 4.4375 -4.066406 4.222656 -4.148438 3.953125 -4.203125 C 3.679688 -4.265625 3.332031 -4.296875 2.90625 -4.296875 L 2.90625 -1.765625 C 2.90625 -1.515625 2.9375 -1.304688 3 -1.140625 C 3.0625 -0.984375 3.164062 -0.851562 3.3125 -0.75 C 3.457031 -0.65625 3.648438 -0.585938 3.890625 -0.546875 C 4.128906 -0.503906 4.421875 -0.484375 4.765625 -0.484375 C 5.160156 -0.484375 5.492188 -0.507812 5.765625 -0.5625 C 6.046875 -0.625 6.28125 -0.71875 6.46875 -0.84375 C 6.65625 -0.976562 6.804688 -1.15625 6.921875 -1.375 C 7.035156 -1.601562 7.128906 -1.878906 7.203125 -2.203125 L 7.625 -2.203125 L 7.46875 0 L 0.5 0 L 0.5 -0.421875 C 0.757812 -0.429688 0.96875 -0.453125 1.125 -0.484375 C 1.289062 -0.523438 1.414062 -0.585938 1.5 -0.671875 C 1.59375 -0.765625 1.65625 -0.894531 1.6875 -1.0625 C 1.71875 -1.226562 1.734375 -1.441406 1.734375 -1.703125 L 1.734375 -6.921875 C 1.734375 -7.179688 1.71875 -7.390625 1.6875 -7.546875 C 1.664062 -7.710938 1.613281 -7.84375 1.53125 -7.9375 C 1.457031 -8.03125 1.34375 -8.09375 1.1875 -8.125 C 1.039062 -8.15625 0.847656 -8.179688 0.609375 -8.203125 L 0.609375 -8.625 L 7.09375 -8.625 L 7.1875 -6.65625 L 6.796875 -6.65625 C 6.753906 -6.957031 6.679688 -7.203125 6.578125 -7.390625 C 6.484375 -7.578125 6.347656 -7.726562 6.171875 -7.84375 C 5.992188 -7.957031 5.769531 -8.035156 5.5 -8.078125 C 5.226562 -8.117188 4.90625 -8.140625 4.53125 -8.140625 L 3.109375 -8.140625 C 2.972656 -8.140625 2.90625 -8.078125 2.90625 -7.953125 Z M 2.90625 -4.734375" transform="translate(273.926 237.622)"/></g></g></g></svg>